<svg width="24" height="39" viewBox="0 0 24 39" fill="none"
    xmlns="http://www.w3.org/2000/svg">
    <path d="M12.7789 0.896881C13.94 3.05381 16.0935 7.1553 18.1914 11.5651C18.582 11.3563 18.9355 11.1635 19.2298 11.0083C19.4867 10.8691 19.7918 10.8531 20.0543 10.9653C20.3272 11.0777 20.5306 11.3025 20.6162 11.5808C21.4776 14.3371 23.6204 21.6603 23.6944 26.8608C23.6998 26.9517 23.7158 27.0535 23.7158 27.1391C23.7214 33.6522 18.4382 38.9354 11.9261 38.9394C5.40743 38.9394 0.125572 33.6576 0.122575 27.1359C0.122575 27.0503 0.13863 26.9486 0.143981 26.8576C0.212439 21.6647 2.34753 14.3466 3.1811 11.6181C3.26673 11.3399 3.47009 11.1151 3.73789 11.0078C4.01082 10.8955 4.3159 10.9115 4.5676 11.0455C4.85659 11.1954 5.21537 11.3936 5.60603 11.6023C7.69874 7.19768 9.85095 3.09747 11.0155 0.948257C11.1867 0.627158 11.5134 0.42892 11.8773 0.428933C12.2748 0.384151 12.5679 0.625874 12.7789 0.896881ZM17.3206 21.9044C14.2967 18.8805 9.38386 18.881 6.3604 21.9044C3.33137 24.9334 3.33694 29.8411 6.3604 32.8646C9.38986 35.894 14.2915 35.8936 17.3206 32.8646C20.4202 29.842 20.3903 24.9741 17.3206 21.9044ZM10.4705 26.0145C11.2253 26.7693 11.2253 27.9997 10.4705 28.7545C9.71053 29.5144 8.48479 29.5089 7.73042 28.7545C6.97605 28.0001 6.97049 26.7744 7.73042 26.0145C8.09433 25.6506 8.5869 25.447 9.10065 25.447C9.61441 25.447 10.1451 25.6891 10.4705 26.0145ZM15.2998 28.0353C15.6798 28.4153 15.6755 29.0295 15.3011 29.404C14.9211 29.784 14.3109 29.7839 13.931 29.404C13.551 29.024 13.55 28.415 13.9302 28.0348C14.3065 27.6585 14.9573 27.6927 15.2998 28.0353Z" fill="url(#paint0_linear_211_63)"/>
    <defs>
        <linearGradient id="paint0_linear_211_63" x1="13.8748" y1="-65.5881" x2="13.8748" y2="39.4119" gradientUnits="userSpaceOnUse">
            <stop stop-color="#1741FF"/>
            <stop offset="1" stop-color="#C4A4FF"/>
        </linearGradient>
    </defs>
</svg>
