<svg width="23" height="27" viewBox="0 0 23 27" fill="none" xmlns="http://www.w3.org/2000/svg">
<g clip-path="url(#clip0_16_26)">
<path d="M20.5639 1.68433H2.69924C2.05315 1.68433 1.43352 1.95049 0.976667 2.42427C0.519812 2.89804 0.263153 3.54062 0.263153 4.21064L0.263153 22.737C0.263153 23.407 0.519812 24.0496 0.976667 24.5233C1.43352 24.9971 2.05315 25.2633 2.69924 25.2633H9.66494V17.247H6.46757V13.4738H9.66494V10.598C9.66494 7.32696 11.5428 5.52012 14.4189 5.52012C15.7963 5.52012 17.2366 5.77485 17.2366 5.77485V8.98538H15.6496C14.0859 8.98538 13.5982 9.99169 13.5982 11.0238V13.4738H17.0889L16.5307 17.247H13.5982V25.2633H20.5639C21.21 25.2633 21.8296 24.9971 22.2865 24.5233C22.7433 24.0496 23 23.407 23 22.737V4.21064C23 3.54062 22.7433 2.89804 22.2865 2.42427C21.8296 1.95049 21.21 1.68433 20.5639 1.68433Z" fill="white"/>
</g>
<defs>
<clipPath id="clip0_16_26">
<rect width="22.7368" height="26.9474" fill="white" transform="translate(0.263153)"/>
</clipPath>
</defs>
</svg>
