<svg width="24" height="27" viewBox="0 0 24 27" fill="none" xmlns="http://www.w3.org/2000/svg">
<g clip-path="url(#clip0_16_20)">
<path d="M21.8947 1.68433H1.67895C0.752632 1.68433 0 2.44748 0 3.38433V23.5633C0 24.5001 0.752632 25.2633 1.67895 25.2633H21.8947C22.8211 25.2633 23.5789 24.5001 23.5789 23.5633V3.38433C23.5789 2.44748 22.8211 1.68433 21.8947 1.68433ZM7.12632 21.8949H3.63158V10.6422H7.13158V21.8949H7.12632ZM5.37895 9.10538C4.25789 9.10538 3.35263 8.19485 3.35263 7.07906C3.35263 5.96327 4.25789 5.05275 5.37895 5.05275C6.49474 5.05275 7.40526 5.96327 7.40526 7.07906C7.40526 8.20012 6.5 9.10538 5.37895 9.10538ZM20.2263 21.8949H16.7316V16.4212C16.7316 15.1159 16.7053 13.437 14.9158 13.437C13.0947 13.437 12.8158 14.858 12.8158 16.3264V21.8949H9.32105V10.6422H12.6737V12.1791H12.7211C13.1895 11.2949 14.3316 10.3633 16.0316 10.3633C19.5684 10.3633 20.2263 12.6949 20.2263 15.7264V21.8949Z" fill="white"/>
</g>
<defs>
<clipPath id="clip0_16_20">
<rect width="23.5789" height="26.9474" fill="white"/>
</clipPath>
</defs>
</svg>
